<?xml version="1.0" encoding="utf-8"?>
<!-- Generator: Adobe Illustrator 21.0.0, SVG Export Plug-In . SVG Version: 6.00 Build 0)  -->
<svg version="1.1" id="Warstwa_1" xmlns="http://www.w3.org/2000/svg" xmlns:xlink="http://www.w3.org/1999/xlink" x="0px" y="0px"
	 viewBox="0 0 841.4 273.1" style="enable-background:new 0 0 841.4 273.1;" xml:space="preserve">
<style type="text/css">
	.st00 {
        display: none;
    }

    .st01 {
        display: inline;
        fill: #E8FCFA;
    }

    .st02 {
        fill: #FFF;
        stroke: #848484;
        stroke-linecap: round;
        stroke-linejoin: round;
        stroke-miterlimit: 10;
    }

    .st03 {
        fill: #FFFFFF;
        stroke: #848484;
        stroke-linecap: round;
        stroke-linejoin: round;
        stroke-miterlimit: 10;
    }

    .st04 {
        fill: #3AE060;
        stroke: #848484;
        stroke-linecap: round;
        stroke-linejoin: round;
        stroke-miterlimit: 10;
    }

    .st5 {
        fill: #31C87B;
        stroke: #848484;
        stroke-linecap: round;
        stroke-linejoin: round;
        stroke-miterlimit: 10;
    }

    .st6 {
        fill: #B2B2B1;
        stroke: #848484;
        stroke-linecap: round;
        stroke-linejoin: round;
        stroke-miterlimit: 10;
    }

    .st7 {
        fill: none;
        stroke: #848484;
        stroke-linecap: round;
        stroke-linejoin: round;
        stroke-miterlimit: 10;
    }

    .st8 {
        fill: #FFFFFF;
    }

    .st9 {
        fill: none;
        stroke: #848484;
        stroke-linecap: round;
        stroke-linejoin: round;
    }

    .st10 {
        fill: none;
        stroke: #848484;
        stroke-linecap: round;
        stroke-linejoin: round;
        stroke-dasharray: 7.8524, 7.8524;
    }

    .st11 {
        fill: none;
        stroke: #848484;
        stroke-linecap: round;
        stroke-linejoin: round;
        stroke-dasharray: 6.6859, 6.6859;
    }

    .st12 {
        fill: none;
        stroke: #848484;
        stroke-linecap: round;
        stroke-linejoin: round;
        stroke-dasharray: 6.196, 6.196;
    }

    .st13 {
        fill: none;
        stroke: #848484;
        stroke-linecap: round;
        stroke-linejoin: round;
        stroke-dasharray: 7.3123, 7.3123;
    }

    .st14 {
        fill: #B2B2B1;
        stroke: #848484;
        stroke-miterlimit: 10;
    }

    .st15 {
        fill: #848484;
    }

    .st16 {
        fill: #1A88C4;
        stroke: #848484;
        stroke-linecap: round;
        stroke-linejoin: round;
        stroke-miterlimit: 10;
    }

    .st17 {
        fill: #D0E50A;
    }
	[data-window='window1'] {
        fill: #FFF;
		animation: animate_window 5s infinite 0s;
    }
	[data-window='window2'] {
		fill: #FFF;
		animation: animate_window 6s infinite 4s;
	}
	[data-window='window3'] {
		fill: #FFF;
		animation: animate_window 7s infinite 8s;
	}
	[data-window='window4'] {
		fill: #FFF;
		animation: animate_window 5s infinite 4s;
	}
	[data-window='window5'] {
		fill: #FFF;
		animation: animate_window 6s infinite 8s;
	}
	[data-window='window6'] {
		fill: #FFF;
		animation: animate_window 7s infinite 4s;
	}

	@keyframes animate_window {
		0% {
			fill: #FFF
		}
		10% {
			fill: #D0E50A;
		}
		90% {
			fill: #D0E50A
		}
		100% {
			fill: #FFF
		}
	}


</style>
<g id="Background" class="st00">
	<rect id="XMLID_14_" x="-15.1" y="-255.6" class="st01" width="800" height="800"/>
</g>
<path class="st02" data-window="window4" d="M485.3,134.5h13.5l0.8,2.5c0,0-9.6,8.7-13.9,0L485.3,134.5z"/>
<path class="st02" data-window="window4" d="M543.3,134.8h13.5l0.8,2.5c0,0-9.6,8.7-13.9,0L543.3,134.8z"/>
<g>
	<polygon class="st03" points="642.7,241.4 577.2,241.4 577.2,47.3 642.7,34.5 	"/>
	<g>
		<rect data-window="window5" x="591.3" y="109.3" class="st02" width="13.4" height="13.3"/>
		<rect data-window="window5" x="615.3" y="109.3" class="st02" width="13.3" height="13.3"/>
	</g>
	<g>
		<rect data-window="window5" x="591.3" y="131" class="st02" width="13.4" height="13.3"/>
		<rect data-window="window5" x="615.3" y="131" class="st02" width="13.4" height="13.3"/>
	</g>
	<g>
		<rect data-window="window5" x="591.3" y="152.6" class="st02" width="13.4" height="13.4"/>
		<rect data-window="window5" x="615.3" y="152.6" class="st02" width="13.3" height="13.4"/>
	</g>
	<g>
		<rect data-window="window5" x="591.3" y="66.1" class="st02" width="13.4" height="13.3"/>
		<rect data-window="window5" x="615.3" y="66.1" class="st02" width="13.3" height="13.3"/>
	</g>
	<g>
		<rect data-window="window5" x="591.3" y="87.7" class="st02" width="13.4" height="13.3"/>
		<rect data-window="window5" x="615.3" y="87.7" class="st02" width="13.4" height="13.3"/>
	</g>
	<g>
		<rect data-window="window5" x="591.3" y="174.2" class="st02" width="13.4" height="13.3"/>
		<rect data-window="window5" x="615.3" y="174.2" class="st02" width="13.3" height="13.3"/>
	</g>
	<g>
		<rect data-window="window5" x="591.3" y="195.9" class="st02" width="13.4" height="13.3"/>
		<rect data-window="window5" x="615.3" y="195.9" class="st02" width="13.3" height="13.3"/>
	</g>
	<g>
		<rect data-window="window5" x="600.5" y="217.5" class="st03" width="21" height="23.9"/>
	</g>
</g>
<g>
	<rect x="721.1" y="213.2" class="st03" width="13.4" height="13.4"/>
	<rect x="745.1" y="213.2" class="st03" width="13.3" height="13.4"/>
</g>
<g>
	<path class="st03" d="M740.2,266.7c10.5-0.2,21.6,0,32.4,1.6V91.1l-65.5,12.8v165.9C717.9,267.6,729.3,266.9,740.2,266.7z"/>
	<rect data-window="window6" x="745.1" y="166" class="st02" width="13.3" height="13.3"/>
	<rect data-window="window6" x="745.1" y="187.6" class="st02" width="13.4" height="13.3"/>
	<rect data-window="window6" x="745.1" y="122.7" class="st02" width="13.3" height="13.3"/>
	<rect data-window="window6" x="745.1" y="144.3" class="st02" width="13.4" height="13.3"/>
</g>
<g>
	<rect x="721.1" y="234.8" class="st03" width="13.4" height="13.3"/>
	<rect x="745.1" y="234.8" class="st03" width="13.3" height="13.3"/>
</g>
<g>
	<rect x="721.1" y="256.5" class="st03" width="13.4" height="13.3"/>
	<rect x="745.1" y="256.5" class="st03" width="13.3" height="13.3"/>
</g>
<g>
	<polygon class="st03" points="734.6,219.2 669.1,219.2 669.1,74.5 702.8,56.6 734.6,74.1 	"/>
	<g>
		<rect data-window="window6" x="683.2" y="87.2" class="st02" width="13.4" height="13.3"/>
		<rect data-window="window6" x="707.2" y="87.2" class="st02" width="13.3" height="13.3"/>
	</g>
	<g>
		<rect data-window="window6" x="683.2" y="108.8" class="st02" width="13.4" height="13.3"/>
		<rect data-window="window6" x="707.2" y="108.8" class="st02" width="13.4" height="13.3"/>
	</g>
	<g>
		<rect data-window="window6" x="683.2" y="130.5" class="st02" width="13.4" height="13.3"/>
		<rect data-window="window6" x="707.2" y="130.5" class="st02" width="13.3" height="13.3"/>
	</g>
	<g>
		<rect data-window="window6" x="683.2" y="152.1" class="st02" width="13.4" height="13.3"/>
		<rect data-window="window6" x="707.2" y="152.1" class="st02" width="13.3" height="13.3"/>
	</g>
	<g>
		<rect data-window="window6" x="683.2" y="173.7" class="st02" width="13.4" height="13.3"/>
		<rect data-window="window6" x="707.2" y="173.7" class="st02" width="13.3" height="13.3"/>
	</g>
	<g>
		<rect data-window="window6" x="692.3" y="195.4" class="st03" width="21" height="23.9"/>
	</g>
</g>
<path id="XMLID_44_" class="st04" d="M513.3,233.7l99-58.2c25.4-14.9,56.5-16.1,83-3.1l114.1,61.4L513.3,233.7L513.3,233.7z"/>
<path id="XMLID_13_" class="st5" d="M381.5,233.7l88-51.7c22.6-13.3,50.3-14.3,73.8-2.8l111.2,54.5H381.5z"/>
<path id="XMLID_71_" class="st5" d="M781.3,205.4c-4.7,0-9,1.5-12.5,4c-5.3-8.9-15-14.8-26-14.8c-13.7,0-25.3,9.1-29,21.6
	c-3.7-2.7-8.2-4.4-13.1-4.4c-12.1,0-21.9,9.8-21.9,21.9l0,0h33.7h10.1h36.9h13.6h30.2v-6.4C803.2,215.2,793.4,205.4,781.3,205.4z"/>
<g>
	<polygon id="XMLID_94_" class="st6" points="662.2,100.1 667.3,69.5 706.7,41.3 701.6,71.9 	"/>
	<g id="XMLID_88_">
		<line id="XMLID_93_" class="st7" x1="688.6" y1="81.2" x2="693.6" y2="50.6"/>
		<line id="XMLID_89_" class="st7" x1="675.3" y1="90.8" x2="680.3" y2="60.1"/>
	</g>
	<line id="XMLID_87_" class="st7" x1="704.1" y1="56.6" x2="664.7" y2="84.8"/>
</g>
<path id="XMLID_130_" class="st03" d="M164.1,50.5c-2.8,0-5.4,1.2-7.2,3.1c0-9.3-7.5-16.8-16.9-16.8c-7,0-13,4.3-15.6,10.4
	c-2.1-1.4-4.6-2.3-7.2-2.3c-7.1,0-12.8,5.7-12.8,12.8c0,7.1,5.7,12.8,12.8,12.8H164c5.5,0,10-4.5,10-10
	C174.1,55,169.6,50.5,164.1,50.5z"/>
<g id="XMLID_2_">
	<path class="st8" d="M207.3,67.8c-2.8,0-5.4,1.2-7.2,3.1c0-9.3-7.5-16.8-16.9-16.8c-7,0-13,4.3-15.6,10.4c-2.1-1.4-4.6-2.3-7.2-2.3
		c-7.1,0-12.8,5.7-12.8,12.8c0,7.1,5.7,12.8,12.8,12.8h46.8c5.5,0,10-4.5,10-10S212.8,67.8,207.3,67.8z"/>
	<g>
		<path class="st9" d="M202.9,68.8c-1.1,0.5-2,1.2-2.8,2.1c0-1.2-0.1-2.4-0.4-3.5"/>
		<path class="st10" d="M196.4,60.3c-3.1-3.9-7.8-6.3-13.2-6.3c-4.4,0-8.3,1.7-11.3,4.4"/>
		<path class="st9" d="M169.4,61.3c-0.7,1-1.2,2-1.7,3.1c-1-0.7-2-1.2-3.1-1.6"/>
		<path class="st11" d="M158,62.4c-5.9,1.2-10.3,6.3-10.3,12.6c0,7.1,5.7,12.8,12.8,12.8h46.8c5.5,0,10-4.5,10-10s-4.5-10-10-10
			c-0.4,0-0.8,0-1.2,0.1"/>
	</g>
</g>
<g id="XMLID_8_">
	<path class="st8" d="M537.6,30.3c-3.1,0-5.8,1.3-7.8,3.3c0-10.1-8.2-18.3-18.3-18.3c-7.6,0-14.2,4.7-16.9,11.3
		c-2.2-1.5-5-2.5-7.9-2.5c-7.7,0-13.9,6.2-13.9,13.9c0,7.7,6.2,13.9,13.9,13.9h51c6,0,10.8-4.9,10.8-10.8
		C548.5,35.1,543.6,30.3,537.6,30.3z"/>
	<g>
		<path class="st9" d="M532.6,31.5c-1,0.5-2,1.3-2.8,2.1c0-1.2-0.1-2.4-0.3-3.5"/>
		<path class="st12" d="M527.3,24.4c-3.2-5.4-9.1-9.1-15.8-9.1c-5.3,0-10,2.2-13.4,5.8"/>
		<path class="st9" d="M496.2,23.5c-0.6,1-1.2,2-1.6,3.1c-1-0.7-2-1.2-3.1-1.6"/>
		<path class="st13" d="M484.2,24.3c-6.5,1.1-11.5,6.9-11.5,13.7c0,7.7,6.2,13.9,13.9,13.9h51c6,0,10.8-4.9,10.8-10.8
			c0-6-4.9-10.8-10.8-10.8c-0.5,0-1.1,0-1.6,0.1"/>
	</g>
</g>
<path id="XMLID_159_" class="st03" d="M495.9,34.7c-3.1,0-5.9,1-8.3,2.6c-2.9-7-9.8-11.9-17.8-11.9c-10.6,0-19.3,8.6-19.3,19.3
	c-2.1-2.2-5-3.5-8.2-3.5c-6.3,0-11.4,5.1-11.4,11.4c0,0.2,0,0.3,0,0.5h-0.4c-1.1-3.2-4.1-5.4-7.7-5.4c-4.5,0-8.2,3.7-8.2,8.2
	s3.7,8.2,8.2,8.2h19.4h14.6h39c8.1,0,14.6-6.6,14.6-14.6C510.6,41.2,504,34.7,495.9,34.7z"/>
<line id="XMLID_160_" class="st7" x1="447.6" y1="20.8" x2="423.1" y2="20.8"/>
<line id="XMLID_161_" class="st7" x1="463.9" y1="9.8" x2="448.4" y2="9.8"/>
<line id="XMLID_162_" class="st7" x1="100.2" y1="31" x2="78.3" y2="31"/>
<line id="XMLID_1_" class="st7" x1="83.2" y1="43.2" x2="61.4" y2="43.2"/>
<line id="XMLID_164_" class="st7" x1="131.9" y1="79.3" x2="122.4" y2="79.3"/>
<g>
	<polygon class="st03" points="280.8,195.3 215.3,195.3 215.3,116.6 249,98.7 280.8,116.2 	"/>
	<g>
		<rect data-window="window2" x="229.4" y="128.2" class="st02" width="13.3" height="13.3"/>
		<rect data-window="window2" x="253.4" y="128.2" class="st02" width="13.3" height="13.3"/>
	</g>
	<g>
		<rect data-window="window2" x="229.4" y="149.8" class="st02" width="13.3" height="13.3"/>
		<rect data-window="window2" x="253.4" y="149.8" class="st02" width="13.3" height="13.3"/>
	</g>
	<g>
		<rect x="238.5" y="171.4" class="st03" width="21" height="23.9"/>
	</g>
</g>
<path id="XMLID_99_" class="st04" d="M174.6,233.7l99-58.2c25.4-14.9,56.5-16.1,83-3.1l125.1,61.4L174.6,233.7L174.6,233.7z"/>
<path id="XMLID_95_" class="st5" d="M0,273.1h609.2v-39.4H30.8C-1.2,238,3.7,259.6,0,273.1z"/>
<path id="XMLID_98_" class="st5" d="M46.8,233.6l87.6-49.1c22.4-12.6,50-13.6,73.4-2.7l110.7,51.8L46.8,233.6L46.8,233.6z"/>
<polygon id="XMLID_5_" class="st03" points="82.5,153 76.3,153 72.7,233.9 86.1,233.9 "/>
<g id="XMLID_17_">
	<polygon id="XMLID_49_" class="st6" points="83.9,145.1 115.9,96.7 112.6,94.5 83.8,124.4 77.5,141 	"/>
	<polygon id="XMLID_50_" class="st6" points="72.8,144.3 15.4,134.9 14.8,138.8 53.9,152.8 71.6,151.8 	"/>
	<polygon id="XMLID_48_" class="st6" points="83.1,151.1 114.2,200.3 110.8,202.4 82.7,171.9 76.7,155.2 	"/>
	
		<ellipse id="XMLID_15_" transform="matrix(0.5519 -0.8339 0.8339 0.5519 -88.3557 131.0435)" class="st6" cx="77.8" cy="147.7" rx="7.2" ry="7.2"/>
	
		<ellipse id="XMLID_47_" transform="matrix(0.5519 -0.8339 0.8339 0.5519 -88.3557 131.0435)" class="st14" cx="77.8" cy="147.7" rx="3.2" ry="3.2"/>
</g>
<path id="XMLID_52_" class="st6" d="M68.1,205.4L68.1,205.4c-12,0-21.8,9.8-21.8,21.8v6.3h43.6v-6.3
	C89.9,215.2,80.1,205.4,68.1,205.4z"/>
<path id="XMLID_67_" class="st04" d="M347.5,213.2c-3.4,0-6.5,1.1-9,2.8c-3.8-6.4-10.8-10.6-18.7-10.6c-9.9,0-18.2,6.6-20.9,15.5
	c-2.6-2-5.9-3.2-9.4-3.2c-8.7,0-15.8,7.1-15.8,15.8l0,0h24.2h7.2h26.5h9.8h21.7v-4.6C363.3,220.3,356.2,213.2,347.5,213.2z"/>
<g id="XMLID_81_">
	<polygon id="XMLID_78_" class="st6" points="281.3,201.1 259.3,223 210.8,223 232.8,201.1 	"/>
	<g id="XMLID_64_">
		<line id="XMLID_79_" class="st7" x1="248.9" y1="201.1" x2="226.9" y2="223"/>
		<line id="XMLID_80_" class="st7" x1="265.2" y1="201.1" x2="243.3" y2="223"/>
	</g>
	<line id="XMLID_82_" class="st7" x1="221.8" y1="212" x2="270.3" y2="212"/>
	<rect id="XMLID_83_" x="240.9" y="223" class="st6" width="6.7" height="10.4"/>
</g>
<g>
	<polygon id="XMLID_104_" class="st03" points="425.2,119.7 384.6,119.7 384.6,142.1 380.7,144.3 380.7,233.8 469.7,233.8
		469.7,144.3 	"/>
	<polygon id="XMLID_26_" class="st03" points="429.1,233.8 340.1,233.8 340.1,144.3 384.6,119.7 429.1,144.3 	"/>
	<rect id="XMLID_84_" x="429.1" y="144.3" class="st03" width="40.6" height="89.5"/>
	<g id="XMLID_29_">
		<polygon id="XMLID_97_" class="st02" points="352,233.8 352,151.3 384.6,133.3 417.3,151.3 417.3,233.8 		"/>
		<polygon data-window="window3" id="XMLID_96_" class="st02" points="352,233.8 352,151.3 384.6,133.3 417.3,151.3 417.3,233.8 		"/>
	</g>
	<rect id="XMLID_100_" x="352" y="151.3" class="st03" width="5.8" height="82.5"/>
	<polygon id="XMLID_101_" class="st03" points="352,151.3 357.8,152.7 389.4,135.9 384.6,133.3 	"/>
	<line id="XMLID_105_" class="st7" x1="352" y1="179.4" x2="417.3" y2="179.4"/>
	<line id="XMLID_107_" class="st7" x1="352" y1="209.9" x2="417.3" y2="209.9"/>
	<line id="XMLID_108_" class="st7" x1="389.4" y1="135.9" x2="389.4" y2="233.8"/>
	<rect id="XMLID_116_"  data-window="window3" x="443.5" y="171.3" class="st02" width="14.6" height="35.5"/>
	<line id="XMLID_141_" class="st7" x1="443.5" y1="189" x2="458.1" y2="189"/>
	<line id="XMLID_142_" class="st7" x1="450.8" y1="171.3" x2="450.8" y2="206.8"/>
	<polygon id="XMLID_143_"  data-window="window3" class="st02" points="435.3,125.3 458.2,138 439,138 416,125.3 	"/>
	<line id="XMLID_144_" class="st7" x1="428.2" y1="131.7" x2="446.7" y2="131.7"/>
</g>
<g>
	<polygon class="st03" points="203.4,233.6 137.9,233.6 137.9,177.3 171.6,159.5 203.4,176.9 	"/>
	<g>
		<rect data-window="window1" x="152" y="188.1" class="st02" width="13.3" height="13.3"/>
		<rect data-window="window1" x="176" y="188.1" class="st02" width="13.3" height="13.3"/>
	</g>
	<g>
		<rect x="161.1" y="209.8" class="st03" width="21" height="23.9"/>
	</g>
</g>
<path class="st03" d="M556.1,129h-16.6c-1.1,0-2,0.5-2.7,1.2h-4.2c-0.1,0-0.3,0-0.4,0c-3.6,0.1-6.9,1.6-9.4,4.1
	c-0.7,0.7-1.2,1.4-1.7,2.2c-0.5-0.8-1.1-1.5-1.7-2.2c-2.5-2.6-5.8-4-9.4-4.1c-0.1,0-0.3,0-0.4,0h-4.2c-0.6-0.8-1.6-1.2-2.7-1.2
	h-16.6c-1.9,0-3.5,1.6-3.5,3.5v4.5h1.1c0,3.1,3.5,5.6,7.9,5.6s7.9-2.5,7.9-5.6h6.7v-2.4h3.3c0.1,0,0.2,0,0.3,0
	c5.1,0.2,9.1,4.3,9.1,9.4v84.5h-6.5v5.4h17.4v-5.4h-6.5V144c0-5.1,4-9.2,9.1-9.4c0.1,0,0.2,0,0.3,0h3.3v2.4h6.7
	c0,3.1,3.5,5.6,7.9,5.6c4.5,0,7.9-2.5,7.9-5.6h1.1v-4.5C559.7,130.6,558.1,129,556.1,129z M491.7,140.6c-3.3,0-6-1.7-6-3.7h12
	C497.7,138.9,494.9,140.6,491.7,140.6z M550.6,140.6c-3.3,0-6-1.7-6-3.7h12C556.6,138.9,553.9,140.6,550.6,140.6z"/>
<g>
	<g>
		<path class="st15" d="M780.1,261.4c2.5-2.9,5.7-4,9.4-3.1c2,0.5,3.5,1.8,5.5,2s3.6-0.9,5.5-1.5c3.9-1.1,7.3-0.5,9.8,2.8
			c0.5,0.6,1.4-0.3,0.9-0.9c-1.7-2.2-3.9-3.6-6.7-3.8c-4.2-0.4-7,2.9-11.4,1.6c-2.6-0.8-3.9-2.1-6.9-1.8c-2.9,0.3-5.2,1.7-7,3.8
			C778.7,261.1,779.6,262,780.1,261.4L780.1,261.4z"/>
	</g>
</g>
<g>
	<path class="st8" d="M555.9,229.5c0.2,2.6-1.3,4.3,0.9,7.6c0.8-1.6,1.3-3.3,1.4-5.1c1.1,1.8,2.2,3.6,3.3,5.4
		c0.4-1.6,0.8-3.2,1.2-4.9c0.6,0.6,0.7,0.6,1.2,1.2"/>
	<g>
		<path class="st8" d="M554,229.5c0.1,1.3-0.3,2.6-0.3,3.9c0,1.7,0.6,3.2,1.4,4.7c0.7,1.1,2.6,1.3,3.2,0c1-1.9,1.5-3.9,1.7-6
			c-1.2,0.3-2.3,0.6-3.5,0.9c1.1,1.8,2.2,3.6,3.3,5.4c0.8,1.3,3,1.2,3.4-0.4s0.8-3.2,1.2-4.9c-1,0.3-2.1,0.6-3.1,0.8
			c0.4,0.4,0.8,0.8,1.2,1.2c1.7,1.8,4.3-0.9,2.7-2.7c-0.4-0.4-0.8-0.8-1.2-1.2c-1-1-2.8-0.5-3.1,0.8c-0.4,1.6-0.8,3.2-1.2,4.9
			c1.1-0.1,2.3-0.3,3.4-0.4c-1.1-1.8-2.2-3.6-3.3-5.4c-1-1.6-3.4-0.9-3.5,0.9c-0.1,1.5-0.5,2.8-1.1,4.2c1.1,0,2.2,0,3.2,0
			c-0.7-1.1-1-2.1-0.9-3.4c0.1-1.1,0.3-2.1,0.3-3.2C557.7,227.1,553.9,227,554,229.5L554,229.5z"/>
	</g>
</g>
<g>
	<path class="st16" d="M841.4,273.1H576.7c-6.5,0-12.3-6.6-16.6-14.9c-4.2-8.2-6.9-18.1-6.9-24.6v-11c0-19.9,26.8-25,26.8-25
		l14.2,6.9c0,0-26.3,2.1-27.6,20.6v8.4h244C832.8,239,837.6,259.6,841.4,273.1z"/>
	<g>
		<g>
			<path class="st8" d="M627.6,250.4c2.5-2.9,5.7-4,9.4-3.1c2,0.5,3.5,1.8,5.5,2s3.6-0.9,5.5-1.5c3.9-1.1,7.3-0.5,9.8,2.8
				c0.5,0.6,1.4-0.3,0.9-0.9c-1.7-2.2-3.9-3.6-6.7-3.8c-4.2-0.4-7,2.9-11.4,1.6c-2.6-0.8-3.9-2.1-6.9-1.8c-2.9,0.3-5.2,1.7-7,3.8
				C626.2,250.1,627.1,251,627.6,250.4L627.6,250.4z"/>
		</g>
	</g>
	<g>
		<g>
			<path class="st8" d="M585.4,265.3c2.5-2.9,5.7-4,9.4-3.1c2,0.5,3.5,1.8,5.5,2s3.6-0.9,5.5-1.5c3.9-1.1,7.3-0.5,9.8,2.8
				c0.5,0.6,1.4-0.3,0.9-0.9c-1.7-2.2-3.9-3.6-6.7-3.8c-4.2-0.4-7,2.9-11.4,1.6c-2.6-0.8-3.9-2.1-6.9-1.8c-2.9,0.3-5.2,1.7-7,3.8
				C583.9,265,584.8,265.9,585.4,265.3L585.4,265.3z"/>
		</g>
	</g>
	<g>
		<g>
			<path class="st8" d="M682.2,263.3c2.5-2.9,5.7-4,9.4-3.1c2,0.5,3.5,1.8,5.5,2s3.6-0.9,5.5-1.5c3.9-1.1,7.3-0.5,9.8,2.8
				c0.5,0.6,1.4-0.3,0.9-0.9c-1.7-2.2-3.9-3.6-6.7-3.8c-4.2-0.4-7,2.9-11.4,1.6c-2.6-0.8-3.9-2.1-6.9-1.8c-2.9,0.3-5.2,1.7-7,3.8
				C680.8,263.1,681.7,264,682.2,263.3L682.2,263.3z"/>
		</g>
	</g>
	<g>
		<g>
			<path class="st8" d="M736,250c2.5-2.9,5.7-4,9.4-3.1c2,0.5,3.5,1.8,5.5,2s3.6-0.9,5.5-1.5c3.9-1.1,7.3-0.5,9.8,2.8
				c0.5,0.6,1.4-0.3,0.9-0.9c-1.7-2.2-3.9-3.6-6.7-3.8c-4.2-0.4-7,2.9-11.4,1.6c-2.6-0.8-3.9-2.1-6.9-1.8c-2.9,0.3-5.2,1.7-7,3.8
				C734.6,249.7,735.5,250.6,736,250L736,250z"/>
		</g>
	</g>
	<g>
		<g>
			<path class="st8" d="M576.4,252.2c2.1-3.1,6.7-3.3,9.2-0.6c0.5,0.6,1.4-0.3,0.9-0.9c-3-3.3-8.7-2.8-11.1,0.9
				C574.9,252.2,576,252.9,576.4,252.2L576.4,252.2z"/>
		</g>
	</g>
	<g>
		<g>
			<path class="st8" d="M660.2,262.9c2.1-3.1,6.7-3.3,9.2-0.6c0.5,0.6,1.4-0.3,0.9-0.9c-3-3.3-8.7-2.8-11.1,0.9
				C658.7,262.9,659.8,263.6,660.2,262.9L660.2,262.9z"/>
		</g>
	</g>
	<g>
		<g>
			<path class="st8" d="M745.6,264.3c2.1-3.1,6.7-3.3,9.2-0.6c0.5,0.6,1.4-0.3,0.9-0.9c-3-3.3-8.7-2.8-11.1,0.9
				C744.1,264.3,745.2,265,745.6,264.3L745.6,264.3z"/>
		</g>
	</g>
</g>
<g>
	<g>
		<path class="st8" d="M798,252.7c2.1-3.1,6.7-3.3,9.2-0.6c0.5,0.6,1.4-0.3,0.9-0.9c-3-3.3-8.7-2.8-11.1,0.9
			C796.5,252.8,797.6,253.4,798,252.7L798,252.7z"/>
	</g>
</g>
<g>
	<circle class="st17" cx="198.5" cy="21.9" r="11.3"/>
	<path class="st15" d="M199.1,33.8c-6.5,0-11.9-5.3-11.9-11.9c0-6.5,5.3-11.9,11.9-11.9S211,15.3,211,21.9
		C211,28.4,205.6,33.8,199.1,33.8z M199.1,11.3c-5.8,0-10.6,4.7-10.6,10.6c0,5.8,4.7,10.6,10.6,10.6s10.6-4.7,10.6-10.6
		C209.7,16.1,204.9,11.3,199.1,11.3z"/>
	<g>
		<path class="st15" d="M199.1,6.2c-0.3,0-0.6-0.3-0.6-0.6v-5c0-0.3,0.3-0.6,0.6-0.6s0.6,0.3,0.6,0.6v5
			C199.7,5.9,199.5,6.2,199.1,6.2z"/>
		<path class="st15" d="M199.1,44c-0.3,0-0.6-0.3-0.6-0.6v-5c0-0.3,0.3-0.6,0.6-0.6s0.6,0.3,0.6,0.6v5C199.7,43.7,199.5,44,199.1,44
			z"/>
	</g>
	<g>
		<path class="st15" d="M182.7,22.5h-5c-0.3,0-0.6-0.3-0.6-0.6c0-0.3,0.3-0.6,0.6-0.6h5c0.3,0,0.6,0.3,0.6,0.6
			C183.4,22.3,183.1,22.5,182.7,22.5z"/>
		<path class="st15" d="M220.5,22.5h-5c-0.3,0-0.6-0.3-0.6-0.6c0-0.3,0.3-0.6,0.6-0.6h5c0.3,0,0.6,0.3,0.6,0.6
			C221.2,22.3,220.9,22.5,220.5,22.5z"/>
	</g>
	<g>
		<path class="st15" d="M187.5,11c-0.2,0-0.3-0.1-0.4-0.2l-3.6-3.6c-0.2-0.2-0.2-0.6,0-0.9c0.2-0.2,0.6-0.2,0.9,0l3.6,3.6
			c0.2,0.2,0.2,0.6,0,0.9C187.8,10.9,187.7,11,187.5,11z"/>
		<path class="st15" d="M214.3,37.7c-0.2,0-0.3-0.1-0.4-0.2l-3.6-3.6c-0.2-0.2-0.2-0.6,0-0.9c0.2-0.2,0.6-0.2,0.9,0l3.6,3.6
			c0.2,0.2,0.2,0.6,0,0.9C214.6,37.6,214.4,37.7,214.3,37.7z"/>
	</g>
	<g>
		<path class="st15" d="M184,37.7c-0.2,0-0.3-0.1-0.4-0.2c-0.2-0.2-0.2-0.6,0-0.9l3.6-3.6c0.2-0.2,0.6-0.2,0.9,0
			c0.2,0.2,0.2,0.6,0,0.9l-3.6,3.6C184.3,37.6,184.1,37.7,184,37.7z"/>
		<path class="st15" d="M210.7,11c-0.2,0-0.3-0.1-0.4-0.2c-0.2-0.2-0.2-0.6,0-0.9l3.6-3.6c0.2-0.2,0.6-0.2,0.9,0
			c0.2,0.2,0.2,0.6,0,0.9l-3.6,3.6C211,10.9,210.9,11,210.7,11z"/>
	</g>
</g>
<path class="st03" d="M483.7,137"/>
</svg>
